<?xml version="1.0" standalone="no"?>
<!DOCTYPE svg PUBLIC "-//W3C//DTD SVG 20010904//EN"
 "http://www.w3.org/TR/2001/REC-SVG-20010904/DTD/svg10.dtd">
<svg version="1.0" xmlns="http://www.w3.org/2000/svg"
 width="192.000000pt" height="192.000000pt" viewBox="0 0 192.000000 192.000000"
 preserveAspectRatio="xMidYMid meet">
<metadata>
Created by potrace 1.10, written by Peter Selinger 2001-2011
</metadata>
<g transform="translate(0.000000,192.000000) scale(0.100000,-0.100000)"
fill="#000000" stroke="none">
<path d="M755 1895 c-280 -62 -520 -247 -645 -495 -31 -61 -80 -186 -80 -203
0 -4 14 0 31 8 72 38 192 27 257 -22 133 -101 145 -326 23 -442 -62 -59 -184
-81 -265 -47 -21 9 -40 16 -42 16 -7 0 43 -124 76 -190 135 -269 430 -478 714
-505 70 -7 59 8 -14 20 -79 13 -242 75 -324 123 -123 73 -223 168 -305 288
-39 58 -101 182 -101 203 0 5 26 7 59 4 166 -15 296 101 309 276 9 133 -46
241 -150 294 -48 25 -67 29 -137 29 -95 -1 -95 -2 -52 93 70 154 196 299 344
396 93 61 147 85 273 119 44 12 99 27 124 35 l45 13 -40 0 c-22 0 -67 -6 -100
-13z"/>
<path d="M1075 1895 c28 -8 86 -25 130 -37 220 -59 406 -194 535 -389 67 -101
112 -215 104 -258 -4 -21 0 -38 14 -58 11 -15 26 -50 35 -78 13 -43 15 -46 16
-20 2 62 -11 105 -30 105 -14 0 -19 7 -19 30 0 17 5 30 11 30 17 0 3 43 -46
148 -50 106 -94 171 -174 255 -145 153 -373 268 -561 282 l-65 5 50 -15z"/>
<path d="M1274 1380 c-31 -12 -54 -49 -54 -85 0 -38 -16 -55 -50 -55 -29 0
-60 -27 -60 -52 0 -21 32 -48 58 -48 35 0 42 -31 42 -193 0 -85 3 -169 6 -186
15 -73 109 -125 185 -102 50 15 99 72 99 114 0 60 -52 78 -89 31 -13 -16 -27
-24 -36 -20 -13 5 -15 30 -13 178 l3 173 51 3 c42 2 53 7 64 27 10 19 11 31 2
50 -11 24 -37 32 -95 27 -21 -2 -38 37 -35 78 2 29 -25 71 -46 69 -6 0 -21 -4
-32 -9z m56 -85 l0 -75 70 0 70 0 0 -30 0 -30 -70 0 -70 0 0 -182 c0 -191 7
-229 43 -236 25 -5 47 16 47 44 0 21 5 24 36 24 31 0 35 -3 30 -20 -3 -11 -8
-29 -12 -40 -10 -37 -62 -70 -109 -70 -57 0 -87 14 -111 53 -17 28 -19 56 -22
232 l-4 200 -49 -3 c-49 -4 -49 -4 -49 27 0 31 0 31 54 31 l54 0 7 65 c7 62 9
65 39 74 17 5 34 10 39 10 4 1 7 -33 7 -74z"/>
<path d="M707 1246 c-92 -25 -170 -101 -196 -187 -6 -20 -11 -71 -11 -113 0
-62 5 -88 26 -131 91 -193 380 -223 514 -53 50 62 63 112 58 213 -7 128 -60
210 -165 257 -57 25 -164 32 -226 14z m224 -39 c47 -23 95 -71 122 -121 31
-59 31 -203 0 -262 -58 -109 -180 -167 -304 -144 -137 26 -217 114 -227 250
-9 136 53 241 172 287 46 18 192 12 237 -10z"/>
<path d="M722 1154 c-45 -23 -69 -57 -88 -122 -28 -97 2 -217 67 -263 48 -34
149 -34 197 -1 53 38 76 94 75 187 0 93 -23 149 -75 186 -42 30 -130 37 -176
13z m179 -52 c73 -82 63 -253 -19 -311 -51 -36 -144 -28 -184 16 -78 87 -56
284 37 324 11 5 47 7 79 6 51 -3 63 -7 87 -35z"/>
<path d="M80 1153 c-8 -3 -27 -15 -43 -25 -22 -16 -27 -26 -26 -61 1 -23 4
-33 6 -22 24 95 156 124 229 51 43 -43 61 -121 45 -196 -18 -85 -66 -130 -139
-130 -61 0 -100 23 -123 73 l-19 42 0 -33 c0 -48 16 -71 63 -93 133 -60 246
29 247 195 0 130 -55 198 -165 203 -33 1 -67 0 -75 -4z"/>
<path d="M1890 838 c-7 -29 -21 -63 -32 -75 -15 -16 -19 -31 -16 -60 10 -81
-102 -281 -226 -405 -127 -128 -333 -234 -506 -263 -73 -12 -84 -27 -14 -20
86 8 184 38 283 85 199 96 350 249 445 451 52 111 61 139 47 139 -6 0 -11 14
-11 30 0 23 5 30 19 30 16 0 20 10 26 65 9 82 1 93 -15 23z"/>
<path d="M1622 814 c-53 -37 -47 -110 10 -140 61 -31 118 6 118 77 0 65 -74
101 -128 63z m86 -20 c15 -10 22 -25 22 -48 0 -41 -15 -56 -60 -56 -45 0 -60
15 -60 56 0 34 28 64 60 64 9 0 26 -7 38 -16z"/>
</g>
</svg>
